<mxfile host="app.diagrams.net" modified="2022-01-25T09:16:10.635Z" agent="5.0 (Macintosh)" etag="x5PMJnrIme15oj8j6G-T" version="16.4.6" type="github">
  <diagram id="A4k_CsSaa7MWw_IXGKh3" name="Page-1">
    <mxGraphModel dx="3737" dy="1136" grid="1" gridSize="10" guides="1" tooltips="1" connect="1" arrows="1" fold="1" page="1" pageScale="1" pageWidth="850" pageHeight="1100" math="0" shadow="0">
      <root>
        <mxCell id="0" />
        <mxCell id="1" parent="0" />
        <mxCell id="trCBkfbQmDUvonRNvg2--10" style="edgeStyle=orthogonalEdgeStyle;rounded=0;orthogonalLoop=1;jettySize=auto;html=1;exitX=0.5;exitY=0.5;exitDx=0;exitDy=0;exitPerimeter=0;fontSize=12;" edge="1" parent="1" source="trCBkfbQmDUvonRNvg2--2" target="trCBkfbQmDUvonRNvg2--3">
          <mxGeometry relative="1" as="geometry" />
        </mxCell>
        <mxCell id="trCBkfbQmDUvonRNvg2--134" value="withdraw req" style="edgeLabel;html=1;align=center;verticalAlign=middle;resizable=0;points=[];fontSize=13;" vertex="1" connectable="0" parent="trCBkfbQmDUvonRNvg2--10">
          <mxGeometry x="0.2583" relative="1" as="geometry">
            <mxPoint as="offset" />
          </mxGeometry>
        </mxCell>
        <mxCell id="trCBkfbQmDUvonRNvg2--123" style="edgeStyle=none;rounded=0;orthogonalLoop=1;jettySize=auto;html=1;fontSize=13;" edge="1" parent="1" source="trCBkfbQmDUvonRNvg2--2" target="trCBkfbQmDUvonRNvg2--122">
          <mxGeometry relative="1" as="geometry" />
        </mxCell>
        <mxCell id="trCBkfbQmDUvonRNvg2--124" value="confirm withdraw" style="edgeLabel;html=1;align=center;verticalAlign=middle;resizable=0;points=[];fontSize=13;" vertex="1" connectable="0" parent="trCBkfbQmDUvonRNvg2--123">
          <mxGeometry x="-0.1648" y="3" relative="1" as="geometry">
            <mxPoint as="offset" />
          </mxGeometry>
        </mxCell>
        <mxCell id="trCBkfbQmDUvonRNvg2--2" value="Actor" style="shape=umlActor;verticalLabelPosition=bottom;verticalAlign=top;html=1;outlineConnect=0;strokeColor=#000000;" vertex="1" parent="1">
          <mxGeometry x="-640" y="1674" width="40" height="78" as="geometry" />
        </mxCell>
        <mxCell id="trCBkfbQmDUvonRNvg2--113" style="rounded=0;orthogonalLoop=1;jettySize=auto;html=1;entryX=0.5;entryY=1;entryDx=0;entryDy=0;fontSize=13;" edge="1" parent="1" source="trCBkfbQmDUvonRNvg2--3" target="trCBkfbQmDUvonRNvg2--6">
          <mxGeometry relative="1" as="geometry" />
        </mxCell>
        <mxCell id="trCBkfbQmDUvonRNvg2--133" value="POST" style="edgeLabel;html=1;align=center;verticalAlign=middle;resizable=0;points=[];fontSize=13;" vertex="1" connectable="0" parent="trCBkfbQmDUvonRNvg2--113">
          <mxGeometry x="-0.068" y="-3" relative="1" as="geometry">
            <mxPoint as="offset" />
          </mxGeometry>
        </mxCell>
        <mxCell id="trCBkfbQmDUvonRNvg2--3" value="&lt;div&gt;userId&lt;/div&gt;&lt;div&gt;bankId&lt;/div&gt;&lt;div&gt;bankAddress&lt;/div&gt;&lt;div&gt;code&lt;/div&gt;&lt;div&gt;amount&lt;/div&gt;&lt;div&gt;bankAccName&lt;/div&gt;&lt;div&gt;fee&lt;/div&gt;" style="shape=note;whiteSpace=wrap;html=1;backgroundOutline=1;darkOpacity=0.05;" vertex="1" parent="1">
          <mxGeometry x="-880" y="1644" width="100" height="138" as="geometry" />
        </mxCell>
        <mxCell id="trCBkfbQmDUvonRNvg2--98" style="edgeStyle=orthogonalEdgeStyle;rounded=0;orthogonalLoop=1;jettySize=auto;html=1;entryX=-0.007;entryY=0.423;entryDx=0;entryDy=0;entryPerimeter=0;fontSize=13;" edge="1" parent="1" source="trCBkfbQmDUvonRNvg2--6" target="trCBkfbQmDUvonRNvg2--24">
          <mxGeometry relative="1" as="geometry" />
        </mxCell>
        <mxCell id="trCBkfbQmDUvonRNvg2--99" value="&lt;div&gt;save withdraw_request&amp;nbsp; log&lt;/div&gt;&lt;div&gt;statusId = WITHDRAW_NEW&lt;br&gt;&lt;/div&gt;" style="edgeLabel;html=1;align=center;verticalAlign=middle;resizable=0;points=[];fontSize=13;" vertex="1" connectable="0" parent="trCBkfbQmDUvonRNvg2--98">
          <mxGeometry x="0.1526" y="-2" relative="1" as="geometry">
            <mxPoint as="offset" />
          </mxGeometry>
        </mxCell>
        <mxCell id="trCBkfbQmDUvonRNvg2--6" value="&lt;b&gt;SQS listener&lt;/b&gt;" style="rounded=0;whiteSpace=wrap;html=1;fontSize=12;" vertex="1" parent="1">
          <mxGeometry x="-905" y="1280" width="150" height="70" as="geometry" />
        </mxCell>
        <mxCell id="trCBkfbQmDUvonRNvg2--115" style="rounded=0;orthogonalLoop=1;jettySize=auto;html=1;entryX=0.487;entryY=1.01;entryDx=0;entryDy=0;entryPerimeter=0;fontSize=13;" edge="1" parent="1" source="trCBkfbQmDUvonRNvg2--24" target="trCBkfbQmDUvonRNvg2--18">
          <mxGeometry relative="1" as="geometry" />
        </mxCell>
        <mxCell id="trCBkfbQmDUvonRNvg2--116" style="edgeStyle=none;rounded=0;orthogonalLoop=1;jettySize=auto;html=1;entryX=0.532;entryY=1.015;entryDx=0;entryDy=0;entryPerimeter=0;fontSize=13;" edge="1" parent="1" source="trCBkfbQmDUvonRNvg2--24" target="trCBkfbQmDUvonRNvg2--81">
          <mxGeometry relative="1" as="geometry" />
        </mxCell>
        <mxCell id="trCBkfbQmDUvonRNvg2--117" style="edgeStyle=none;rounded=0;orthogonalLoop=1;jettySize=auto;html=1;entryX=0.487;entryY=1.004;entryDx=0;entryDy=0;entryPerimeter=0;fontSize=13;" edge="1" parent="1" source="trCBkfbQmDUvonRNvg2--24" target="trCBkfbQmDUvonRNvg2--85">
          <mxGeometry relative="1" as="geometry" />
        </mxCell>
        <mxCell id="trCBkfbQmDUvonRNvg2--118" style="edgeStyle=none;rounded=0;orthogonalLoop=1;jettySize=auto;html=1;exitX=0.855;exitY=0;exitDx=0;exitDy=4.35;exitPerimeter=0;entryX=0.514;entryY=1.01;entryDx=0;entryDy=0;entryPerimeter=0;fontSize=13;" edge="1" parent="1" source="trCBkfbQmDUvonRNvg2--24" target="trCBkfbQmDUvonRNvg2--90">
          <mxGeometry relative="1" as="geometry" />
        </mxCell>
        <mxCell id="trCBkfbQmDUvonRNvg2--24" value="&lt;b&gt;DB&lt;/b&gt;" style="shape=cylinder3;whiteSpace=wrap;html=1;boundedLbl=1;backgroundOutline=1;size=15;fontSize=13;" vertex="1" parent="1">
          <mxGeometry x="-760" y="870" width="90" height="90" as="geometry" />
        </mxCell>
        <mxCell id="trCBkfbQmDUvonRNvg2--29" style="edgeStyle=orthogonalEdgeStyle;rounded=0;orthogonalLoop=1;jettySize=auto;html=1;exitX=0.5;exitY=1;exitDx=0;exitDy=0;entryX=0.5;entryY=0;entryDx=0;entryDy=0;fontSize=13;" edge="1" parent="1" source="trCBkfbQmDUvonRNvg2--25" target="trCBkfbQmDUvonRNvg2--27">
          <mxGeometry relative="1" as="geometry" />
        </mxCell>
        <mxCell id="trCBkfbQmDUvonRNvg2--30" style="edgeStyle=orthogonalEdgeStyle;rounded=0;orthogonalLoop=1;jettySize=auto;html=1;exitX=0.5;exitY=1;exitDx=0;exitDy=0;fontSize=13;" edge="1" parent="1" source="trCBkfbQmDUvonRNvg2--25" target="trCBkfbQmDUvonRNvg2--28">
          <mxGeometry relative="1" as="geometry" />
        </mxCell>
        <mxCell id="trCBkfbQmDUvonRNvg2--25" value="&lt;b&gt;Scheduler&lt;/b&gt;" style="shape=parallelogram;perimeter=parallelogramPerimeter;whiteSpace=wrap;html=1;fixedSize=1;fontSize=13;" vertex="1" parent="1">
          <mxGeometry x="415" y="530" width="155" height="60" as="geometry" />
        </mxCell>
        <mxCell id="trCBkfbQmDUvonRNvg2--32" style="edgeStyle=orthogonalEdgeStyle;rounded=0;orthogonalLoop=1;jettySize=auto;html=1;exitX=0.5;exitY=1;exitDx=0;exitDy=0;entryX=0.5;entryY=0;entryDx=0;entryDy=0;fontSize=13;" edge="1" parent="1" source="trCBkfbQmDUvonRNvg2--27" target="trCBkfbQmDUvonRNvg2--31">
          <mxGeometry relative="1" as="geometry" />
        </mxCell>
        <mxCell id="trCBkfbQmDUvonRNvg2--52" value="query" style="edgeLabel;html=1;align=center;verticalAlign=middle;resizable=0;points=[];fontSize=13;" vertex="1" connectable="0" parent="trCBkfbQmDUvonRNvg2--32">
          <mxGeometry x="0.0286" y="2" relative="1" as="geometry">
            <mxPoint as="offset" />
          </mxGeometry>
        </mxCell>
        <mxCell id="trCBkfbQmDUvonRNvg2--27" value="&lt;b&gt;otcOrder&lt;/b&gt;" style="rounded=1;whiteSpace=wrap;html=1;fontSize=13;" vertex="1" parent="1">
          <mxGeometry x="140" y="650" width="120" height="60" as="geometry" />
        </mxCell>
        <mxCell id="trCBkfbQmDUvonRNvg2--53" style="edgeStyle=orthogonalEdgeStyle;rounded=0;orthogonalLoop=1;jettySize=auto;html=1;exitX=0.5;exitY=1;exitDx=0;exitDy=0;entryX=0.5;entryY=0;entryDx=0;entryDy=0;fontSize=13;" edge="1" parent="1" source="trCBkfbQmDUvonRNvg2--28" target="trCBkfbQmDUvonRNvg2--51">
          <mxGeometry relative="1" as="geometry" />
        </mxCell>
        <mxCell id="trCBkfbQmDUvonRNvg2--54" value="query" style="edgeLabel;html=1;align=center;verticalAlign=middle;resizable=0;points=[];fontSize=13;" vertex="1" connectable="0" parent="trCBkfbQmDUvonRNvg2--53">
          <mxGeometry x="0.0286" y="1" relative="1" as="geometry">
            <mxPoint as="offset" />
          </mxGeometry>
        </mxCell>
        <mxCell id="trCBkfbQmDUvonRNvg2--28" value="&lt;b&gt;bankWithdraw&lt;/b&gt;" style="rounded=1;whiteSpace=wrap;html=1;fontSize=13;" vertex="1" parent="1">
          <mxGeometry x="690" y="650" width="120" height="60" as="geometry" />
        </mxCell>
        <mxCell id="trCBkfbQmDUvonRNvg2--34" style="edgeStyle=orthogonalEdgeStyle;rounded=0;orthogonalLoop=1;jettySize=auto;html=1;exitX=0.5;exitY=1;exitDx=0;exitDy=0;entryX=0.5;entryY=0;entryDx=0;entryDy=0;fontSize=13;" edge="1" parent="1" source="trCBkfbQmDUvonRNvg2--31" target="trCBkfbQmDUvonRNvg2--33">
          <mxGeometry relative="1" as="geometry" />
        </mxCell>
        <mxCell id="trCBkfbQmDUvonRNvg2--35" value="POST" style="edgeLabel;html=1;align=center;verticalAlign=middle;resizable=0;points=[];fontSize=13;" vertex="1" connectable="0" parent="trCBkfbQmDUvonRNvg2--34">
          <mxGeometry x="-0.1333" y="3" relative="1" as="geometry">
            <mxPoint as="offset" />
          </mxGeometry>
        </mxCell>
        <mxCell id="trCBkfbQmDUvonRNvg2--31" value="&lt;div&gt;statusId = 1001&lt;/div&gt;from withdraw_request" style="rhombus;whiteSpace=wrap;html=1;fontSize=13;" vertex="1" parent="1">
          <mxGeometry x="85" y="780" width="230" height="80" as="geometry" />
        </mxCell>
        <mxCell id="trCBkfbQmDUvonRNvg2--37" style="edgeStyle=orthogonalEdgeStyle;rounded=0;orthogonalLoop=1;jettySize=auto;html=1;exitX=0.5;exitY=1;exitDx=0;exitDy=0;entryX=0.5;entryY=0;entryDx=0;entryDy=0;fontSize=13;" edge="1" parent="1" source="trCBkfbQmDUvonRNvg2--33" target="trCBkfbQmDUvonRNvg2--36">
          <mxGeometry relative="1" as="geometry" />
        </mxCell>
        <mxCell id="trCBkfbQmDUvonRNvg2--38" value="&lt;div&gt;POST&lt;/div&gt;" style="edgeLabel;html=1;align=center;verticalAlign=middle;resizable=0;points=[];fontSize=13;" vertex="1" connectable="0" parent="trCBkfbQmDUvonRNvg2--37">
          <mxGeometry y="5" relative="1" as="geometry">
            <mxPoint as="offset" />
          </mxGeometry>
        </mxCell>
        <mxCell id="trCBkfbQmDUvonRNvg2--33" value="getToken&amp;amp;OpenId" style="rounded=0;whiteSpace=wrap;html=1;fontSize=13;" vertex="1" parent="1">
          <mxGeometry x="140" y="920" width="120" height="60" as="geometry" />
        </mxCell>
        <mxCell id="trCBkfbQmDUvonRNvg2--40" style="edgeStyle=orthogonalEdgeStyle;rounded=0;orthogonalLoop=1;jettySize=auto;html=1;exitX=0.5;exitY=1;exitDx=0;exitDy=0;entryX=0.5;entryY=0;entryDx=0;entryDy=0;fontSize=13;" edge="1" parent="1" source="trCBkfbQmDUvonRNvg2--36" target="trCBkfbQmDUvonRNvg2--39">
          <mxGeometry relative="1" as="geometry" />
        </mxCell>
        <mxCell id="trCBkfbQmDUvonRNvg2--64" value="response" style="edgeLabel;html=1;align=center;verticalAlign=middle;resizable=0;points=[];fontSize=13;" vertex="1" connectable="0" parent="trCBkfbQmDUvonRNvg2--40">
          <mxGeometry x="-0.1667" y="-2" relative="1" as="geometry">
            <mxPoint as="offset" />
          </mxGeometry>
        </mxCell>
        <mxCell id="trCBkfbQmDUvonRNvg2--36" value="Otc order req" style="rounded=0;whiteSpace=wrap;html=1;fontSize=13;" vertex="1" parent="1">
          <mxGeometry x="140" y="1050" width="120" height="60" as="geometry" />
        </mxCell>
        <mxCell id="trCBkfbQmDUvonRNvg2--42" style="edgeStyle=orthogonalEdgeStyle;rounded=0;orthogonalLoop=1;jettySize=auto;html=1;exitX=1;exitY=0.5;exitDx=0;exitDy=0;fontSize=13;" edge="1" parent="1" source="trCBkfbQmDUvonRNvg2--39" target="trCBkfbQmDUvonRNvg2--41">
          <mxGeometry relative="1" as="geometry" />
        </mxCell>
        <mxCell id="trCBkfbQmDUvonRNvg2--43" value="update withdraw_request" style="edgeLabel;html=1;align=center;verticalAlign=middle;resizable=0;points=[];fontSize=13;" vertex="1" connectable="0" parent="trCBkfbQmDUvonRNvg2--42">
          <mxGeometry x="0.2381" y="-3" relative="1" as="geometry">
            <mxPoint as="offset" />
          </mxGeometry>
        </mxCell>
        <mxCell id="trCBkfbQmDUvonRNvg2--47" value="false" style="edgeLabel;html=1;align=center;verticalAlign=middle;resizable=0;points=[];fontSize=13;" vertex="1" connectable="0" parent="trCBkfbQmDUvonRNvg2--42">
          <mxGeometry x="-0.5524" relative="1" as="geometry">
            <mxPoint as="offset" />
          </mxGeometry>
        </mxCell>
        <mxCell id="trCBkfbQmDUvonRNvg2--45" style="edgeStyle=orthogonalEdgeStyle;rounded=0;orthogonalLoop=1;jettySize=auto;html=1;exitX=0;exitY=0.5;exitDx=0;exitDy=0;entryX=0.5;entryY=0;entryDx=0;entryDy=0;fontSize=13;" edge="1" parent="1" source="trCBkfbQmDUvonRNvg2--39" target="trCBkfbQmDUvonRNvg2--44">
          <mxGeometry relative="1" as="geometry" />
        </mxCell>
        <mxCell id="trCBkfbQmDUvonRNvg2--46" value="update withdraw_request" style="edgeLabel;html=1;align=center;verticalAlign=middle;resizable=0;points=[];fontSize=13;" vertex="1" connectable="0" parent="trCBkfbQmDUvonRNvg2--45">
          <mxGeometry x="0.325" y="-1" relative="1" as="geometry">
            <mxPoint as="offset" />
          </mxGeometry>
        </mxCell>
        <mxCell id="trCBkfbQmDUvonRNvg2--48" value="true" style="edgeLabel;html=1;align=center;verticalAlign=middle;resizable=0;points=[];fontSize=13;" vertex="1" connectable="0" parent="trCBkfbQmDUvonRNvg2--45">
          <mxGeometry x="-0.575" y="-3" relative="1" as="geometry">
            <mxPoint as="offset" />
          </mxGeometry>
        </mxCell>
        <mxCell id="trCBkfbQmDUvonRNvg2--39" value="status == 200" style="rhombus;whiteSpace=wrap;html=1;fontSize=13;" vertex="1" parent="1">
          <mxGeometry x="130" y="1170" width="140" height="80" as="geometry" />
        </mxCell>
        <mxCell id="trCBkfbQmDUvonRNvg2--41" value="&lt;div&gt;statusId = 1004&lt;/div&gt;" style="rounded=0;whiteSpace=wrap;html=1;fontSize=13;" vertex="1" parent="1">
          <mxGeometry x="280" y="1340" width="160" height="60" as="geometry" />
        </mxCell>
        <mxCell id="trCBkfbQmDUvonRNvg2--102" style="edgeStyle=orthogonalEdgeStyle;rounded=0;orthogonalLoop=1;jettySize=auto;html=1;exitX=0.5;exitY=1;exitDx=0;exitDy=0;entryX=0.5;entryY=0;entryDx=0;entryDy=0;fontSize=13;" edge="1" parent="1" source="trCBkfbQmDUvonRNvg2--44" target="trCBkfbQmDUvonRNvg2--101">
          <mxGeometry relative="1" as="geometry" />
        </mxCell>
        <mxCell id="trCBkfbQmDUvonRNvg2--44" value="&lt;div&gt;statusId = 1002,&lt;/div&gt;add orderNum" style="rounded=0;whiteSpace=wrap;html=1;fontSize=13;" vertex="1" parent="1">
          <mxGeometry x="-60" y="1340" width="160" height="60" as="geometry" />
        </mxCell>
        <mxCell id="trCBkfbQmDUvonRNvg2--56" style="edgeStyle=orthogonalEdgeStyle;rounded=0;orthogonalLoop=1;jettySize=auto;html=1;exitX=0.5;exitY=1;exitDx=0;exitDy=0;entryX=0.5;entryY=0;entryDx=0;entryDy=0;fontSize=13;" edge="1" parent="1" source="trCBkfbQmDUvonRNvg2--51" target="trCBkfbQmDUvonRNvg2--55">
          <mxGeometry relative="1" as="geometry" />
        </mxCell>
        <mxCell id="trCBkfbQmDUvonRNvg2--51" value="match orderNum&amp;amp;statusId = 1002&lt;br&gt;from withdraw_request" style="rhombus;whiteSpace=wrap;html=1;fontSize=13;" vertex="1" parent="1">
          <mxGeometry x="597.5" y="780" width="305" height="80" as="geometry" />
        </mxCell>
        <mxCell id="trCBkfbQmDUvonRNvg2--58" style="edgeStyle=orthogonalEdgeStyle;rounded=0;orthogonalLoop=1;jettySize=auto;html=1;exitX=0.5;exitY=1;exitDx=0;exitDy=0;entryX=0.5;entryY=0;entryDx=0;entryDy=0;fontSize=13;" edge="1" parent="1" source="trCBkfbQmDUvonRNvg2--55" target="trCBkfbQmDUvonRNvg2--57">
          <mxGeometry relative="1" as="geometry" />
        </mxCell>
        <mxCell id="trCBkfbQmDUvonRNvg2--59" value="POST" style="edgeLabel;html=1;align=center;verticalAlign=middle;resizable=0;points=[];fontSize=13;" vertex="1" connectable="0" parent="trCBkfbQmDUvonRNvg2--58">
          <mxGeometry x="0.1429" relative="1" as="geometry">
            <mxPoint as="offset" />
          </mxGeometry>
        </mxCell>
        <mxCell id="trCBkfbQmDUvonRNvg2--55" value="calculate fee" style="rounded=0;whiteSpace=wrap;html=1;fontSize=13;" vertex="1" parent="1">
          <mxGeometry x="690" y="920" width="120" height="60" as="geometry" />
        </mxCell>
        <mxCell id="trCBkfbQmDUvonRNvg2--73" style="edgeStyle=orthogonalEdgeStyle;rounded=0;orthogonalLoop=1;jettySize=auto;html=1;exitX=0.5;exitY=1;exitDx=0;exitDy=0;entryX=0.5;entryY=0;entryDx=0;entryDy=0;fontSize=13;" edge="1" parent="1" source="trCBkfbQmDUvonRNvg2--57" target="trCBkfbQmDUvonRNvg2--71">
          <mxGeometry relative="1" as="geometry" />
        </mxCell>
        <mxCell id="trCBkfbQmDUvonRNvg2--57" value="save bank_request_log" style="rounded=0;whiteSpace=wrap;html=1;fontSize=13;" vertex="1" parent="1">
          <mxGeometry x="690" y="1050" width="120" height="60" as="geometry" />
        </mxCell>
        <mxCell id="trCBkfbQmDUvonRNvg2--66" style="edgeStyle=orthogonalEdgeStyle;rounded=0;orthogonalLoop=1;jettySize=auto;html=1;exitX=1;exitY=0.5;exitDx=0;exitDy=0;entryX=0.5;entryY=0;entryDx=0;entryDy=0;fontSize=13;" edge="1" parent="1" source="trCBkfbQmDUvonRNvg2--61" target="trCBkfbQmDUvonRNvg2--65">
          <mxGeometry relative="1" as="geometry" />
        </mxCell>
        <mxCell id="trCBkfbQmDUvonRNvg2--67" value="update withdraw_request" style="edgeLabel;html=1;align=center;verticalAlign=middle;resizable=0;points=[];fontSize=13;" vertex="1" connectable="0" parent="trCBkfbQmDUvonRNvg2--66">
          <mxGeometry x="0.5059" y="-1" relative="1" as="geometry">
            <mxPoint as="offset" />
          </mxGeometry>
        </mxCell>
        <mxCell id="trCBkfbQmDUvonRNvg2--68" value="false" style="edgeLabel;html=1;align=center;verticalAlign=middle;resizable=0;points=[];fontSize=13;" vertex="1" connectable="0" parent="trCBkfbQmDUvonRNvg2--66">
          <mxGeometry x="-0.5294" y="-2" relative="1" as="geometry">
            <mxPoint as="offset" />
          </mxGeometry>
        </mxCell>
        <mxCell id="trCBkfbQmDUvonRNvg2--77" style="edgeStyle=orthogonalEdgeStyle;rounded=0;orthogonalLoop=1;jettySize=auto;html=1;fontSize=13;" edge="1" parent="1" source="trCBkfbQmDUvonRNvg2--61" target="trCBkfbQmDUvonRNvg2--75">
          <mxGeometry relative="1" as="geometry" />
        </mxCell>
        <mxCell id="trCBkfbQmDUvonRNvg2--78" value="update withdraw_request" style="edgeLabel;html=1;align=center;verticalAlign=middle;resizable=0;points=[];fontSize=13;" vertex="1" connectable="0" parent="trCBkfbQmDUvonRNvg2--77">
          <mxGeometry x="0.4444" y="-1" relative="1" as="geometry">
            <mxPoint as="offset" />
          </mxGeometry>
        </mxCell>
        <mxCell id="trCBkfbQmDUvonRNvg2--103" value="true" style="edgeLabel;html=1;align=center;verticalAlign=middle;resizable=0;points=[];fontSize=13;" vertex="1" connectable="0" parent="trCBkfbQmDUvonRNvg2--77">
          <mxGeometry x="-0.4617" y="1" relative="1" as="geometry">
            <mxPoint as="offset" />
          </mxGeometry>
        </mxCell>
        <mxCell id="trCBkfbQmDUvonRNvg2--61" value="status == 200" style="rhombus;whiteSpace=wrap;html=1;fontSize=13;" vertex="1" parent="1">
          <mxGeometry x="680" y="1280" width="140" height="80" as="geometry" />
        </mxCell>
        <mxCell id="trCBkfbQmDUvonRNvg2--65" value="&lt;div&gt;statusId = 1004&lt;/div&gt;" style="rounded=0;whiteSpace=wrap;html=1;fontSize=13;" vertex="1" parent="1">
          <mxGeometry x="880" y="1410" width="160" height="60" as="geometry" />
        </mxCell>
        <mxCell id="trCBkfbQmDUvonRNvg2--72" style="edgeStyle=orthogonalEdgeStyle;rounded=0;orthogonalLoop=1;jettySize=auto;html=1;exitX=0.5;exitY=1;exitDx=0;exitDy=0;entryX=0.5;entryY=0;entryDx=0;entryDy=0;fontSize=13;" edge="1" parent="1" source="trCBkfbQmDUvonRNvg2--71" target="trCBkfbQmDUvonRNvg2--61">
          <mxGeometry relative="1" as="geometry" />
        </mxCell>
        <mxCell id="trCBkfbQmDUvonRNvg2--74" value="response" style="edgeLabel;html=1;align=center;verticalAlign=middle;resizable=0;points=[];fontSize=13;" vertex="1" connectable="0" parent="trCBkfbQmDUvonRNvg2--72">
          <mxGeometry x="-0.16" y="2" relative="1" as="geometry">
            <mxPoint as="offset" />
          </mxGeometry>
        </mxCell>
        <mxCell id="trCBkfbQmDUvonRNvg2--71" value="bank withdraw req" style="rounded=0;whiteSpace=wrap;html=1;fontSize=13;" vertex="1" parent="1">
          <mxGeometry x="690" y="1150" width="120" height="60" as="geometry" />
        </mxCell>
        <mxCell id="trCBkfbQmDUvonRNvg2--105" style="edgeStyle=orthogonalEdgeStyle;rounded=0;orthogonalLoop=1;jettySize=auto;html=1;exitX=0.5;exitY=1;exitDx=0;exitDy=0;entryX=0.5;entryY=0;entryDx=0;entryDy=0;fontSize=13;" edge="1" parent="1" source="trCBkfbQmDUvonRNvg2--75" target="trCBkfbQmDUvonRNvg2--104">
          <mxGeometry relative="1" as="geometry" />
        </mxCell>
        <mxCell id="trCBkfbQmDUvonRNvg2--75" value="&lt;div&gt;statusId = 1003&lt;/div&gt;" style="rounded=0;whiteSpace=wrap;html=1;fontSize=13;" vertex="1" parent="1">
          <mxGeometry x="510" y="1410" width="160" height="60" as="geometry" />
        </mxCell>
        <mxCell id="trCBkfbQmDUvonRNvg2--120" style="edgeStyle=none;rounded=0;orthogonalLoop=1;jettySize=auto;html=1;entryX=1;entryY=0.3333333333333333;entryDx=0;entryDy=0;entryPerimeter=0;fontSize=13;" edge="1" parent="1" source="trCBkfbQmDUvonRNvg2--101" target="trCBkfbQmDUvonRNvg2--2">
          <mxGeometry relative="1" as="geometry" />
        </mxCell>
        <mxCell id="trCBkfbQmDUvonRNvg2--121" value="&lt;div&gt;response url&lt;/div&gt;" style="edgeLabel;html=1;align=center;verticalAlign=middle;resizable=0;points=[];fontSize=13;" vertex="1" connectable="0" parent="trCBkfbQmDUvonRNvg2--120">
          <mxGeometry x="0.0896" y="-3" relative="1" as="geometry">
            <mxPoint as="offset" />
          </mxGeometry>
        </mxCell>
        <mxCell id="trCBkfbQmDUvonRNvg2--101" value="return url" style="rounded=0;whiteSpace=wrap;html=1;fontSize=13;" vertex="1" parent="1">
          <mxGeometry x="-60" y="1450" width="160" height="60" as="geometry" />
        </mxCell>
        <mxCell id="trCBkfbQmDUvonRNvg2--104" value="save bank_response_log" style="rounded=0;whiteSpace=wrap;html=1;fontSize=13;" vertex="1" parent="1">
          <mxGeometry x="510" y="1530" width="160" height="60" as="geometry" />
        </mxCell>
        <mxCell id="trCBkfbQmDUvonRNvg2--114" value="" style="group" vertex="1" connectable="0" parent="1">
          <mxGeometry x="-1020" y="330" width="680" height="260" as="geometry" />
        </mxCell>
        <mxCell id="trCBkfbQmDUvonRNvg2--17" value="withdraw_request" style="swimlane;fontStyle=1;childLayout=stackLayout;horizontal=1;startSize=30;horizontalStack=0;resizeParent=1;resizeParentMax=0;resizeLast=0;collapsible=1;marginBottom=0;fontSize=13;" vertex="1" parent="trCBkfbQmDUvonRNvg2--114">
          <mxGeometry width="140" height="260" as="geometry" />
        </mxCell>
        <mxCell id="trCBkfbQmDUvonRNvg2--18" value="id&#xa;user_id&#xa;status_id&#xa;amount&#xa;bank_acc_name&#xa;bank_acc_no&#xa;bank_name&#xa;fee&#xa;code&#xa;bank_id&#xa;order_num&#xa;created_date&#xa;updated_date&#xa;" style="text;strokeColor=none;fillColor=none;align=left;verticalAlign=middle;spacingLeft=4;spacingRight=4;overflow=hidden;points=[[0,0.5],[1,0.5]];portConstraint=eastwest;rotatable=0;fontSize=13;" vertex="1" parent="trCBkfbQmDUvonRNvg2--17">
          <mxGeometry y="30" width="140" height="230" as="geometry" />
        </mxCell>
        <mxCell id="trCBkfbQmDUvonRNvg2--80" value="withdraw_response" style="swimlane;fontStyle=1;childLayout=stackLayout;horizontal=1;startSize=30;horizontalStack=0;resizeParent=1;resizeParentMax=0;resizeLast=0;collapsible=1;marginBottom=0;fontSize=13;" vertex="1" parent="trCBkfbQmDUvonRNvg2--114">
          <mxGeometry x="180" width="140" height="260" as="geometry" />
        </mxCell>
        <mxCell id="trCBkfbQmDUvonRNvg2--81" value="id&#xa;out_order_id&#xa;sign&#xa;order_num&#xa;order_status&#xa;app_key&#xa;return_url&#xa;amount&#xa;created_date&#xa;" style="text;strokeColor=none;fillColor=none;align=left;verticalAlign=middle;spacingLeft=4;spacingRight=4;overflow=hidden;points=[[0,0.5],[1,0.5]];portConstraint=eastwest;rotatable=0;fontSize=13;" vertex="1" parent="trCBkfbQmDUvonRNvg2--80">
          <mxGeometry y="30" width="140" height="230" as="geometry" />
        </mxCell>
        <mxCell id="trCBkfbQmDUvonRNvg2--84" value="bank_request_log" style="swimlane;fontStyle=1;childLayout=stackLayout;horizontal=1;startSize=30;horizontalStack=0;resizeParent=1;resizeParentMax=0;resizeLast=0;collapsible=1;marginBottom=0;fontSize=13;" vertex="1" parent="trCBkfbQmDUvonRNvg2--114">
          <mxGeometry x="360" width="140" height="260" as="geometry" />
        </mxCell>
        <mxCell id="trCBkfbQmDUvonRNvg2--85" value="id&#xa;from_acc_no&#xa;from_bank_name&#xa;to_acc_no&#xa;to_acc_name&#xa;amount&#xa;description&#xa;req_body&#xa;to_bank_code&#xa;order_id&#xa;order_num&#xa;created_date&#xa;updated_date&#xa;" style="text;strokeColor=none;fillColor=none;align=left;verticalAlign=middle;spacingLeft=4;spacingRight=4;overflow=hidden;points=[[0,0.5],[1,0.5]];portConstraint=eastwest;rotatable=0;fontSize=13;" vertex="1" parent="trCBkfbQmDUvonRNvg2--84">
          <mxGeometry y="30" width="140" height="230" as="geometry" />
        </mxCell>
        <mxCell id="trCBkfbQmDUvonRNvg2--89" value="bank_response_log" style="swimlane;fontStyle=1;childLayout=stackLayout;horizontal=1;startSize=30;horizontalStack=0;resizeParent=1;resizeParentMax=0;resizeLast=0;collapsible=1;marginBottom=0;fontSize=13;" vertex="1" parent="trCBkfbQmDUvonRNvg2--114">
          <mxGeometry x="540" width="140" height="260" as="geometry" />
        </mxCell>
        <mxCell id="trCBkfbQmDUvonRNvg2--90" value="id&#xa;from_acc_no&#xa;to_bank_name&#xa;to_acc_no&#xa;amount&#xa;res_body&#xa;order_id&#xa;order_num&#xa;created_date&#xa;updated_date&#xa;" style="text;strokeColor=none;fillColor=none;align=left;verticalAlign=middle;spacingLeft=4;spacingRight=4;overflow=hidden;points=[[0,0.5],[1,0.5]];portConstraint=eastwest;rotatable=0;fontSize=13;" vertex="1" parent="trCBkfbQmDUvonRNvg2--89">
          <mxGeometry y="30" width="140" height="230" as="geometry" />
        </mxCell>
        <mxCell id="trCBkfbQmDUvonRNvg2--127" style="edgeStyle=none;rounded=0;orthogonalLoop=1;jettySize=auto;html=1;exitX=0.5;exitY=1;exitDx=0;exitDy=0;entryX=0.5;entryY=0;entryDx=0;entryDy=0;fontSize=13;" edge="1" parent="1" source="trCBkfbQmDUvonRNvg2--122" target="trCBkfbQmDUvonRNvg2--126">
          <mxGeometry relative="1" as="geometry" />
        </mxCell>
        <mxCell id="trCBkfbQmDUvonRNvg2--122" value="&lt;b&gt;WEB&lt;/b&gt;" style="whiteSpace=wrap;html=1;aspect=fixed;fontSize=13;" vertex="1" parent="1">
          <mxGeometry x="-530" y="1360" width="160" height="160" as="geometry" />
        </mxCell>
        <mxCell id="trCBkfbQmDUvonRNvg2--129" style="edgeStyle=none;rounded=0;orthogonalLoop=1;jettySize=auto;html=1;exitX=0.5;exitY=1;exitDx=0;exitDy=0;entryX=0.5;entryY=0;entryDx=0;entryDy=0;fontSize=13;" edge="1" parent="1" source="trCBkfbQmDUvonRNvg2--126" target="trCBkfbQmDUvonRNvg2--128">
          <mxGeometry relative="1" as="geometry" />
        </mxCell>
        <mxCell id="trCBkfbQmDUvonRNvg2--135" value="POST" style="edgeLabel;html=1;align=center;verticalAlign=middle;resizable=0;points=[];fontSize=13;" vertex="1" connectable="0" parent="trCBkfbQmDUvonRNvg2--129">
          <mxGeometry x="-0.0256" y="-4" relative="1" as="geometry">
            <mxPoint as="offset" />
          </mxGeometry>
        </mxCell>
        <mxCell id="trCBkfbQmDUvonRNvg2--126" value="response from chainUP" style="rounded=0;whiteSpace=wrap;html=1;fontSize=13;" vertex="1" parent="1">
          <mxGeometry x="-530" y="1230" width="160" height="60" as="geometry" />
        </mxCell>
        <mxCell id="trCBkfbQmDUvonRNvg2--130" style="edgeStyle=orthogonalEdgeStyle;rounded=0;orthogonalLoop=1;jettySize=auto;html=1;exitX=0.5;exitY=0;exitDx=0;exitDy=0;entryX=1;entryY=0.5;entryDx=0;entryDy=0;entryPerimeter=0;fontSize=13;" edge="1" parent="1" source="trCBkfbQmDUvonRNvg2--128" target="trCBkfbQmDUvonRNvg2--24">
          <mxGeometry relative="1" as="geometry" />
        </mxCell>
        <mxCell id="trCBkfbQmDUvonRNvg2--131" value="&lt;div&gt;save withdraw_response&amp;nbsp; log&lt;/div&gt;" style="edgeLabel;html=1;align=center;verticalAlign=middle;resizable=0;points=[];fontSize=13;" vertex="1" connectable="0" parent="trCBkfbQmDUvonRNvg2--130">
          <mxGeometry x="-0.591" y="1" relative="1" as="geometry">
            <mxPoint as="offset" />
          </mxGeometry>
        </mxCell>
        <mxCell id="trCBkfbQmDUvonRNvg2--128" value="&lt;b&gt;SQS listener&lt;/b&gt;" style="rounded=0;whiteSpace=wrap;html=1;fontSize=12;" vertex="1" parent="1">
          <mxGeometry x="-525" y="1090" width="150" height="70" as="geometry" />
        </mxCell>
        <mxCell id="trCBkfbQmDUvonRNvg2--132" value="&lt;div align=&quot;left&quot;&gt;&amp;nbsp;&amp;nbsp;&amp;nbsp; WITHDRAW_NEW = 1001&lt;/div&gt;&lt;div align=&quot;left&quot;&gt;&amp;nbsp;&amp;nbsp;&amp;nbsp; WITHDRAW_REQUEST = 1002&lt;/div&gt;&lt;div align=&quot;left&quot;&gt;&amp;nbsp;&amp;nbsp;&amp;nbsp; WITHDRAW_SUCCESS = 1003&lt;/div&gt;&lt;div align=&quot;left&quot;&gt;&amp;nbsp;&amp;nbsp;&amp;nbsp; WITHDRAW_FAILED = 1004&lt;br&gt;&lt;/div&gt;" style="shape=callout;whiteSpace=wrap;html=1;perimeter=calloutPerimeter;fontSize=13;align=left;" vertex="1" parent="1">
          <mxGeometry x="-260" y="600" width="220" height="200" as="geometry" />
        </mxCell>
      </root>
    </mxGraphModel>
  </diagram>
</mxfile>
